<?xml version="1.0" ?>
<svg xmlns="http://www.w3.org/2000/svg"
     width="24" height="24" viewBox="0 0 24 24"
     xml:space="preserve"
     style="fill-rule:evenodd;clip-rule:evenodd;stroke-linecap:round;stroke-linejoin:round;stroke-miterlimit:1.5;">
  <path d="M180.5,58L248,160L113,160L180.5,58Z"
        style="fill:white;stroke:rgb(174,12,8);stroke-width:5.75px;"
        transform="matrix(0.115169,0,0,0.146903,-8.84021,-4.45689)"/>
  <rect x="134" y="193" width="244" height="203"
        style="fill:none;"
        transform="matrix(0.0359095,0,0,0.043162,2.8072,1.32051)"/>
  <path d="M190,373C202,371 211,368 217,364C222,361 226,356 226,353C226,351 220,346 214,345C199,340 203,333 225,328C230,326 241,325 253,323L261,323L261,320L252,320C235,320 209,324 199,329C189,333 186,339 192,343C193,344 197,346 200,347C204,348 208,350 209,351L210,353L209,356C205,361 191,365 177,365C174,365 168,364 164,363C156,362 156,362 154,364C152,367 152,367 154,370C157,374 172,375 190,373ZM352,374C354,373 361,366 359,363C358,360 351,357 344,355C339,354 314,352 303,352C289,352 274,348 269,343C264,338 266,332 273,330L276,329L276,326C276,326 270.97,326.363 268,327C254,330 247,338 253,345C256,349 266,353 273,355C275.068,356.153 307.007,357.267 318,358C333,359 347,360 348,365C348.513,367.565 341,374 341,374L352,374ZM167,346L168,344C168,343 165,342 163,341C159,339 158,338 158,335C158,332 160,330 167,327C176,323 212,316 225,316L228,316L228,313L215,314C171,315 140,324 140,336C140,339 145,344 150,345C155,347 164,347 167,346ZM306,300L314,266L306,223L220,198L189,231L177,265L306,300ZM304,260L200,232L221.569,206.488L299,228L304,260Z"
        style="fill-rule:nonzero;"
        transform="matrix(0.0380953,0,0,0.0463592,2.5143,0.703452)"/>
  <rect x="61" y="88" width="3" height="3"
        transform="matrix(0.28754,0.0964188,-0.0792313,0.349916,-0.934265,-23.3754)"/>
  <rect x="61" y="88" width="3" height="3"
        transform="matrix(0.28754,0.0964188,-0.0792313,0.349916,2.30052,-22.3595)"/>
</svg>
